<svg width="492" height="420" viewBox="0 0 492 420" fill="none" xmlns="http://www.w3.org/2000/svg">
    <rect x="52" width="440" height="420" rx="30" fill="#D4EDFC"/>
    <g clip-path="url(#clip0_825_910)">
        <path d="M493.854 165.423C546.128 222.204 543.25 274.01 518.158 297.11C493.066 320.21 432.428 304.699 391.206 259.924C368.504 235.265 388.138 208.197 414.207 184.197C440.276 160.197 469.957 139.466 493.854 165.423Z" fill="#F7F9FC"/>
        <path fill-rule="evenodd" clip-rule="evenodd" d="M533.211 233.578C537.82 259.078 530.748 279.941 517.19 292.423C492.098 315.523 431.46 300.012 390.238 255.237C385.754 250.366 382.921 245.401 381.464 240.384C382.29 246.995 385.329 253.54 391.206 259.924C432.428 304.699 493.066 320.21 518.158 297.11C532.538 283.871 539.622 261.205 533.211 233.578Z" fill="#E9EDF5"/>
        <path fill-rule="evenodd" clip-rule="evenodd" d="M535.187 261.183C537.915 235.255 526.915 201.334 493.854 165.423C469.957 139.466 440.276 160.197 414.207 184.197C395.072 201.814 379.404 221.083 381.401 239.839C384.263 224.073 397.833 208.197 413.824 193.474C439.893 169.474 469.574 148.743 493.471 174.7C522.72 206.471 534.702 236.684 535.187 261.183Z" fill="white"/>
        <path d="M430.295 328.224C433.461 332.75 432.066 339.154 426.546 339.008C426.147 338.997 425.744 338.975 425.335 338.942C421.146 338.6 416.485 337.065 411.616 334.426C406.747 331.786 401.766 328.093 396.957 323.558C392.149 319.022 387.608 313.733 383.592 307.992C379.577 302.252 376.166 296.172 373.555 290.1C370.943 284.028 369.183 278.082 368.373 272.603C367.563 267.124 367.721 262.219 368.836 258.167C368.945 257.772 369.062 257.385 369.189 257.007C370.945 251.771 377.439 252.658 380.604 257.183L405.45 292.704L430.295 328.224Z" fill="#F7F9FC"/>
        <path fill-rule="evenodd" clip-rule="evenodd" d="M423.595 338.736C426.793 337.194 427.417 332.365 425.041 328.614L401.849 291.993L378.656 255.372C378.554 255.212 378.449 255.055 378.339 254.903C379.186 255.501 379.963 256.268 380.604 257.184L405.45 292.705L430.295 328.225C433.461 332.751 432.066 339.155 426.545 339.008C426.147 338.998 425.744 338.976 425.335 338.943C424.763 338.896 424.183 338.827 423.595 338.736Z" fill="white"/>
        <circle cx="407.396" cy="42.3281" r="8.2073" transform="rotate(-29.7959 407.396 42.3281)" fill="#F7F9FC"/>
        <path fill-rule="evenodd" clip-rule="evenodd" d="M414.933 45.579C415.918 43.2892 415.853 40.5798 414.518 38.2498C412.266 34.3163 407.251 32.9534 403.318 35.2058C400.988 36.54 399.56 38.8435 399.251 41.3173C399.929 39.7414 401.105 38.3641 402.709 37.4459C406.643 35.1935 411.657 36.5564 413.91 40.4899C414.828 42.0934 415.145 43.8766 414.933 45.579Z" fill="white"/>
        <line x1="408.6" y1="43.5297" x2="431.031" y2="82.7024" stroke="#F7F9FC" stroke-width="5"/>
        <path fill-rule="evenodd" clip-rule="evenodd" d="M443.765 111.349C442.922 104.697 440.841 98.2579 437.42 92.285C434.458 87.1119 430.686 82.6277 426.279 78.8598C432.008 76.2246 438.902 78.3567 442.095 83.9332L448.213 94.6167C451.568 100.477 449.574 107.938 443.765 111.349Z" fill="#9BD9FF"/>
        <path fill-rule="evenodd" clip-rule="evenodd" d="M438.437 90.7572C441.857 96.7301 443.939 103.169 444.782 109.821C445.127 109.618 445.459 109.401 445.777 109.171C444.855 110.343 443.703 111.365 442.341 112.164C441.498 105.513 439.416 99.0735 435.996 93.1007C433.034 87.9276 429.262 83.4434 424.855 79.6755C426.112 79.0973 427.424 78.7486 428.742 78.6155C432.532 82.1057 435.804 86.1594 438.437 90.7572Z" fill="#82D0FF"/>
        <circle cx="270.648" cy="120.632" r="8.2073" transform="rotate(-29.7959 270.648 120.632)" fill="#F7F9FC"/>
        <line x1="271.853" y1="121.833" x2="294.283" y2="161.006" stroke="#F7F9FC" stroke-width="5"/>
        <path fill-rule="evenodd" clip-rule="evenodd" d="M278.185 123.882C279.171 121.593 279.105 118.883 277.771 116.553C275.518 112.62 270.504 111.257 266.57 113.509C264.24 114.843 262.812 117.147 262.503 119.621C263.182 118.045 264.358 116.668 265.961 115.749C269.895 113.497 274.91 114.86 277.162 118.793C278.08 120.397 278.398 122.18 278.185 123.882Z" fill="white"/>
        <path d="M294.956 154C289.056 157.378 287.012 164.9 290.39 170.801L296.508 181.484C299.886 187.384 307.408 189.429 313.309 186.05L294.956 154Z" fill="#9BD9FF"/>
        <path fill-rule="evenodd" clip-rule="evenodd" d="M297.533 171.44C300.954 177.413 305.454 182.468 310.764 186.562C310.414 186.757 310.058 186.934 309.698 187.092C311.176 186.889 312.641 186.413 314.02 185.643C308.711 181.549 304.21 176.494 300.79 170.521C297.828 165.348 295.87 159.825 294.851 154.118C293.716 154.909 292.751 155.865 291.969 156.934C293.061 161.969 294.901 166.843 297.533 171.44Z" fill="#82D0FF"/>
        <ellipse cx="368.334" cy="131.844" rx="77.9694" ry="62.3755" transform="rotate(-29.7959 368.334 131.844)" fill="#F7F9FC"/>
        <path fill-rule="evenodd" clip-rule="evenodd" d="M440.066 137.044C444.586 121.952 443.597 106.374 435.996 93.1003C418.878 63.2054 374.708 56.317 337.339 77.7147C315.334 90.3151 300.594 109.914 295.689 130.005C301.35 111.107 315.649 92.9718 336.426 81.0751C373.794 59.6775 417.964 66.5658 435.083 96.4607C442.12 108.751 443.49 123.017 440.066 137.044Z" fill="white"/>
        <path d="M308.952 149.329C305.436 140.921 309.319 131.59 317.228 127.061L390.076 85.3471C397.985 80.8185 407.998 82.1931 413.47 89.4809C419.886 98.0259 427.176 109.868 427.978 120.39C429.935 146.077 419.515 162.593 394.231 177.071C368.947 191.549 349.428 192.176 328.265 177.486C319.597 171.469 313.074 159.188 308.952 149.329Z" fill="#C5E7FD"/>
        <path fill-rule="evenodd" clip-rule="evenodd" d="M353.903 187.923C366.351 189.348 379.284 185.63 394.231 177.071C419.515 162.593 429.936 146.077 427.978 120.39C427.176 109.868 419.886 98.0259 413.47 89.4809C409.874 84.6913 404.317 82.4558 398.684 82.7714C402.689 83.5368 406.384 85.6761 409.023 89.1904C415.439 97.7354 422.729 109.577 423.531 120.099C425.488 145.786 415.068 162.302 389.784 176.78C376.607 184.325 364.997 188.109 353.903 187.923Z" fill="#B3E1FF"/>
        <circle cx="341.671" cy="141.437" r="8.2073" transform="rotate(-29.7959 341.671 141.437)" fill="#297AF2"/>
        <circle cx="390.103" cy="113.705" r="8.2073" transform="rotate(-29.7959 390.103 113.705)" fill="#297AF2"/>
        <path d="M389.672 137.783C392.548 136.137 396.314 137.141 397.061 140.37C397.215 141.037 397.336 141.712 397.423 142.394C397.765 145.067 397.576 147.781 396.869 150.381C396.161 152.981 394.949 155.416 393.3 157.547C391.652 159.678 389.599 161.464 387.261 162.802C384.922 164.141 382.343 165.005 379.67 165.346C376.997 165.688 374.283 165.499 371.683 164.792C369.083 164.084 366.648 162.872 364.517 161.223C363.973 160.803 363.452 160.356 362.955 159.885C360.55 157.605 361.593 153.85 364.469 152.204L377.07 144.993L389.672 137.783Z" fill="#297AF2"/>
        <path d="M516.575 58.3391C518.584 53.1946 515.718 47.2998 510.388 48.7443C510.003 48.8484 509.616 48.9649 509.227 49.0938C505.237 50.414 501.068 53.0047 496.959 56.7182C492.85 60.4317 488.881 65.1951 485.278 70.7365C481.675 76.278 478.509 82.4889 475.961 89.0147C473.412 95.5405 471.532 102.253 470.426 108.77C469.32 115.287 469.011 121.479 469.517 126.995C470.022 132.51 471.332 137.24 473.371 140.915C473.57 141.273 473.776 141.621 473.988 141.958C476.929 146.633 483.031 144.24 485.04 139.095L500.807 98.7172L516.575 58.3391Z" fill="#F7F9FC"/>
        <path fill-rule="evenodd" clip-rule="evenodd" d="M481.938 143.159C480.551 143.039 479.226 142.312 478.212 140.819C477.988 140.49 477.77 140.149 477.559 139.798C475.392 136.197 473.917 131.516 473.218 126.022C472.52 120.528 472.611 114.328 473.487 107.776C474.364 101.225 476.008 94.4503 478.325 87.8391C480.643 81.2279 483.589 74.9097 486.995 69.2452C488.689 66.429 490.48 63.8019 492.341 61.3981C489.882 64.169 487.509 67.303 485.278 70.7356C481.675 76.277 478.509 82.4879 475.96 89.0137C473.412 95.5395 471.531 102.252 470.426 108.769C469.32 115.286 469.011 121.478 469.516 126.994C470.022 132.509 471.331 137.239 473.371 140.914C473.57 141.272 473.775 141.62 473.987 141.957C475.949 145.075 479.317 145.049 481.938 143.159Z" fill="white"/>
    </g>
    <ellipse cx="169.15" cy="102.85" rx="87.15" ry="52.85" fill="white"/>
    <path d="M271 157.13C254.48 156.57 245.45 139.98 241.95 130.53L225.85 143.13C232.617 150.363 243.56 157.13 271 157.13Z" fill="white"/>
    <path d="M140.68 90.98V116H136.576V105.056H124.804V116H120.7V90.98H124.804V101.708H136.576V90.98H140.68ZM164.263 105.596C164.263 106.34 164.215 107.012 164.119 107.612H148.963C149.083 109.196 149.671 110.468 150.727 111.428C151.783 112.388 153.079 112.868 154.615 112.868C156.823 112.868 158.383 111.944 159.295 110.096H163.723C163.123 111.92 162.031 113.42 160.447 114.596C158.887 115.748 156.943 116.324 154.615 116.324C152.719 116.324 151.015 115.904 149.503 115.064C148.015 114.2 146.839 113 145.975 111.464C145.135 109.904 144.715 108.104 144.715 106.064C144.715 104.024 145.123 102.236 145.939 100.7C146.779 99.14 147.943 97.94 149.431 97.1C150.943 96.26 152.671 95.84 154.615 95.84C156.487 95.84 158.155 96.248 159.619 97.064C161.083 97.88 162.223 99.032 163.039 100.52C163.855 101.984 164.263 103.676 164.263 105.596ZM159.979 104.3C159.955 102.788 159.415 101.576 158.359 100.664C157.303 99.752 155.995 99.296 154.435 99.296C153.019 99.296 151.807 99.752 150.799 100.664C149.791 101.552 149.191 102.764 148.999 104.3H159.979ZM172.406 89.36V116H168.302V89.36H172.406ZM181.898 89.36V116H177.794V89.36H181.898ZM195.89 116.324C194.018 116.324 192.326 115.904 190.814 115.064C189.302 114.2 188.114 113 187.25 111.464C186.386 109.904 185.954 108.104 185.954 106.064C185.954 104.048 186.398 102.26 187.286 100.7C188.174 99.14 189.386 97.94 190.922 97.1C192.458 96.26 194.174 95.84 196.07 95.84C197.966 95.84 199.682 96.26 201.218 97.1C202.754 97.94 203.966 99.14 204.854 100.7C205.742 102.26 206.186 104.048 206.186 106.064C206.186 108.08 205.73 109.868 204.818 111.428C203.906 112.988 202.658 114.2 201.074 115.064C199.514 115.904 197.786 116.324 195.89 116.324ZM195.89 112.76C196.946 112.76 197.93 112.508 198.842 112.004C199.778 111.5 200.534 110.744 201.11 109.736C201.686 108.728 201.974 107.504 201.974 106.064C201.974 104.624 201.698 103.412 201.146 102.428C200.594 101.42 199.862 100.664 198.95 100.16C198.038 99.656 197.054 99.404 195.998 99.404C194.942 99.404 193.958 99.656 193.046 100.16C192.158 100.664 191.45 101.42 190.922 102.428C190.394 103.412 190.13 104.624 190.13 106.064C190.13 108.2 190.67 109.856 191.75 111.032C192.854 112.184 194.234 112.76 195.89 112.76ZM215.391 90.98L214.923 108.44H211.503L211.035 90.98H215.391ZM213.339 116.252C212.595 116.252 211.971 116 211.467 115.496C210.963 114.992 210.711 114.368 210.711 113.624C210.711 112.88 210.963 112.256 211.467 111.752C211.971 111.248 212.595 110.996 213.339 110.996C214.059 110.996 214.671 111.248 215.175 111.752C215.679 112.256 215.931 112.88 215.931 113.624C215.931 114.368 215.679 114.992 215.175 115.496C214.671 116 214.059 116.252 213.339 116.252Z" fill="#022A6E"/>
    <ellipse rx="125" ry="75" transform="matrix(-1 0 0 1 157 285)" fill="#73CAFF"/>
    <path d="M0 360C26.3442 359.116 40.7442 332.921 46.3256 318L72 337.895C61.2093 349.316 43.7581 360 0 360Z" fill="#73CAFF"/>
    <path d="M91.28 272.98L83.864 298H79.22L73.964 279.064L68.384 298L63.776 298.036L56.684 272.98H61.04L66.224 293.356L71.84 272.98H76.448L81.668 293.248L86.888 272.98H91.28ZM104.925 277.84C106.437 277.84 107.781 278.164 108.957 278.812C110.157 279.46 111.093 280.42 111.765 281.692C112.461 282.964 112.809 284.5 112.809 286.3V298H108.741V286.912C108.741 285.136 108.297 283.78 107.409 282.844C106.521 281.884 105.309 281.404 103.773 281.404C102.237 281.404 101.013 281.884 100.101 282.844C99.2128 283.78 98.7688 285.136 98.7688 286.912V298H94.6648V271.36H98.7688V280.468C99.4648 279.628 100.341 278.98 101.397 278.524C102.477 278.068 103.653 277.84 104.925 277.84ZM116.676 287.992C116.676 286 117.084 284.236 117.9 282.7C118.74 281.164 119.868 279.976 121.284 279.136C122.724 278.272 124.308 277.84 126.036 277.84C127.596 277.84 128.952 278.152 130.104 278.776C131.28 279.376 132.216 280.132 132.912 281.044V278.164H137.052V298H132.912V295.048C132.216 295.984 131.268 296.764 130.068 297.388C128.868 298.012 127.5 298.324 125.964 298.324C124.26 298.324 122.7 297.892 121.284 297.028C119.868 296.14 118.74 294.916 117.9 293.356C117.084 291.772 116.676 289.984 116.676 287.992ZM132.912 288.064C132.912 286.696 132.624 285.508 132.048 284.5C131.496 283.492 130.764 282.724 129.852 282.196C128.94 281.668 127.956 281.404 126.9 281.404C125.844 281.404 124.86 281.668 123.948 282.196C123.036 282.7 122.292 283.456 121.716 284.464C121.164 285.448 120.888 286.624 120.888 287.992C120.888 289.36 121.164 290.56 121.716 291.592C122.292 292.624 123.036 293.416 123.948 293.968C124.884 294.496 125.868 294.76 126.9 294.76C127.956 294.76 128.94 294.496 129.852 293.968C130.764 293.44 131.496 292.672 132.048 291.664C132.624 290.632 132.912 289.432 132.912 288.064ZM147.23 281.512V292.492C147.23 293.236 147.398 293.776 147.734 294.112C148.094 294.424 148.694 294.58 149.534 294.58H152.054V298H148.814C146.966 298 145.55 297.568 144.566 296.704C143.582 295.84 143.09 294.436 143.09 292.492V281.512H140.75V278.164H143.09V273.232H147.23V278.164H152.054V281.512H147.23ZM156.485 272.98H160.949L157.169 281.548H154.289L156.485 272.98ZM171.755 298.324C170.195 298.324 168.791 298.048 167.543 297.496C166.319 296.92 165.347 296.152 164.627 295.192C163.907 294.208 163.523 293.116 163.475 291.916H167.723C167.795 292.756 168.191 293.464 168.911 294.04C169.655 294.592 170.579 294.868 171.683 294.868C172.835 294.868 173.723 294.652 174.347 294.22C174.995 293.764 175.319 293.188 175.319 292.492C175.319 291.748 174.959 291.196 174.239 290.836C173.543 290.476 172.427 290.08 170.891 289.648C169.403 289.24 168.191 288.844 167.255 288.46C166.319 288.076 165.503 287.488 164.807 286.696C164.135 285.904 163.799 284.86 163.799 283.564C163.799 282.508 164.111 281.548 164.735 280.684C165.359 279.796 166.247 279.1 167.399 278.596C168.575 278.092 169.919 277.84 171.431 277.84C173.687 277.84 175.499 278.416 176.867 279.568C178.259 280.696 179.003 282.244 179.099 284.212H174.995C174.923 283.324 174.563 282.616 173.915 282.088C173.267 281.56 172.391 281.296 171.287 281.296C170.207 281.296 169.379 281.5 168.803 281.908C168.227 282.316 167.939 282.856 167.939 283.528C167.939 284.056 168.131 284.5 168.515 284.86C168.899 285.22 169.367 285.508 169.919 285.724C170.471 285.916 171.287 286.168 172.367 286.48C173.807 286.864 174.983 287.26 175.895 287.668C176.831 288.052 177.635 288.628 178.307 289.396C178.979 290.164 179.327 291.184 179.351 292.456C179.351 293.584 179.039 294.592 178.415 295.48C177.791 296.368 176.903 297.064 175.751 297.568C174.623 298.072 173.291 298.324 171.755 298.324ZM211.102 278.164V298H206.998V295.66C206.35 296.476 205.498 297.124 204.442 297.604C203.41 298.06 202.306 298.288 201.13 298.288C199.57 298.288 198.166 297.964 196.918 297.316C195.694 296.668 194.722 295.708 194.002 294.436C193.306 293.164 192.958 291.628 192.958 289.828V278.164H197.026V289.216C197.026 290.992 197.47 292.36 198.358 293.32C199.246 294.256 200.458 294.724 201.994 294.724C203.53 294.724 204.742 294.256 205.63 293.32C206.542 292.36 206.998 290.992 206.998 289.216V278.164H211.102ZM220.62 281.08C221.316 280.168 222.264 279.4 223.464 278.776C224.664 278.152 226.02 277.84 227.532 277.84C229.26 277.84 230.832 278.272 232.248 279.136C233.688 279.976 234.816 281.164 235.632 282.7C236.448 284.236 236.856 286 236.856 287.992C236.856 289.984 236.448 291.772 235.632 293.356C234.816 294.916 233.688 296.14 232.248 297.028C230.832 297.892 229.26 298.324 227.532 298.324C226.02 298.324 224.676 298.024 223.5 297.424C222.324 296.8 221.364 296.032 220.62 295.12V307.432H216.516V278.164H220.62V281.08ZM232.68 287.992C232.68 286.624 232.392 285.448 231.816 284.464C231.264 283.456 230.52 282.7 229.584 282.196C228.672 281.668 227.688 281.404 226.632 281.404C225.6 281.404 224.616 281.668 223.68 282.196C222.768 282.724 222.024 283.492 221.448 284.5C220.896 285.508 220.62 286.696 220.62 288.064C220.62 289.432 220.896 290.632 221.448 291.664C222.024 292.672 222.768 293.44 223.68 293.968C224.616 294.496 225.6 294.76 226.632 294.76C227.688 294.76 228.672 294.496 229.584 293.968C230.52 293.416 231.264 292.624 231.816 291.592C232.392 290.56 232.68 289.36 232.68 287.992ZM247.647 272.62C250.095 272.62 252.051 273.292 253.515 274.636C255.003 275.98 255.747 277.816 255.747 280.144C255.747 282.568 254.979 284.392 253.443 285.616C251.907 286.84 249.867 287.452 247.323 287.452L247.179 290.296H243.615L243.435 284.644H244.623C246.951 284.644 248.727 284.332 249.951 283.708C251.199 283.084 251.823 281.896 251.823 280.144C251.823 278.872 251.451 277.876 250.707 277.156C249.987 276.436 248.979 276.076 247.683 276.076C246.387 276.076 245.367 276.424 244.623 277.12C243.879 277.816 243.507 278.788 243.507 280.036H239.655C239.655 278.596 239.979 277.312 240.627 276.184C241.275 275.056 242.199 274.18 243.399 273.556C244.623 272.932 246.039 272.62 247.647 272.62ZM245.343 298.252C244.599 298.252 243.975 298 243.471 297.496C242.967 296.992 242.715 296.368 242.715 295.624C242.715 294.88 242.967 294.256 243.471 293.752C243.975 293.248 244.599 292.996 245.343 292.996C246.063 292.996 246.675 293.248 247.179 293.752C247.683 294.256 247.935 294.88 247.935 295.624C247.935 296.368 247.683 296.992 247.179 297.496C246.675 298 246.063 298.252 245.343 298.252Z" fill="white"/>
    <defs>
        <clipPath id="clip0_825_910">
            <rect width="278" height="420" fill="white" transform="translate(214)"/>
        </clipPath>
    </defs>
</svg>
