<svg width="423" height="252" viewBox="0 0 423 252" fill="none" xmlns="http://www.w3.org/2000/svg">
    <ellipse cx="254.729" cy="94.7811" rx="143.607" ry="94.2811" fill="#B0E2FF"/>
    <path fill-rule="evenodd" clip-rule="evenodd" d="M368.851 37.542C342.533 17.8941 303.959 5.49484 260.973 5.49484C181.661 5.49484 117.366 47.7059 117.366 99.776C117.366 121.303 128.355 141.144 146.851 157.015C124.61 140.411 111.122 118.63 111.122 94.7811C111.122 42.7111 175.417 0.5 254.729 0.5C301.252 0.5 342.608 15.0239 368.851 37.542Z" fill="#96D8FF"/>
    <path d="M418.976 191.312C389.657 188.166 375.75 157.475 370.752 140.206L340.468 160.529C351.566 174.279 370.155 187.742 418.976 191.312Z" fill="#B0E2FF"/>
    <ellipse rx="117.719" ry="77.2849" transform="matrix(-1 0 0 1 135.844 164.785)" fill="#DEF3FF"/>
    <path fill-rule="evenodd" clip-rule="evenodd" d="M45.1886 213.841C28.7822 200.558 18.9521 183.632 18.9521 165.198C18.9521 122.515 71.6566 87.913 136.671 87.913C176.076 87.913 210.959 100.624 232.326 120.142C210.744 102.668 177.78 91.5 140.844 91.5C75.8297 91.5 23.1252 126.102 23.1252 168.785C23.1252 185.598 31.3026 201.157 45.1886 213.841Z" fill="#ABE0FF"/>
    <path d="M3.95446 251.5C27.949 248.578 38.9883 223.259 42.882 209.046L67.9427 225.348C59.0075 236.748 43.9284 248.001 3.95446 251.5Z" fill="#DEF3FF"/>
    <circle cx="96.5627" cy="165.5" r="10" fill="#3BB5FF"/>
    <circle cx="136.563" cy="165.5" r="10" fill="#3BB5FF"/>
    <circle cx="176.563" cy="165.5" r="10" fill="#3BB5FF"/>
</svg>
