<svg width="734" height="700" viewBox="0 0 734 700" fill="none" xmlns="http://www.w3.org/2000/svg">
    <path fill-rule="evenodd" clip-rule="evenodd" d="M675.609 68.5113C605.862 45.8691 531.808 36.5157 462.243 66.9091C406.049 91.4608 364.608 136.23 316.989 176.457C261.306 223.497 186.041 227.701 159.359 296.303C130.362 370.854 125.412 416.145 166.462 480.553C206.524 543.412 293.408 537.642 360.545 567.254C423.605 595.067 486.432 670.628 552.959 645.188C621.379 619.024 653.463 563.47 705.787 509.747C759.481 454.618 818.48 481.966 851.927 412.132C886.208 340.557 878.441 229.866 847.299 160.123C815.482 88.8682 748.142 92.0578 675.609 68.5113Z" fill="#DEF3FF"/>
    <path fill-rule="evenodd" clip-rule="evenodd" d="M813.107 177.816C767.313 119.604 713.185 78.6289 640.096 64.0844C581.055 52.3353 490.725 118.975 430.643 124.973C360.387 131.986 288.391 91.9817 230.89 133.178C168.402 177.946 119.771 252.132 120.29 328.352C120.797 402.739 190.853 430.532 230.89 492.987C268.494 551.649 279.478 622.973 347.498 639.861C417.454 657.23 466.869 603.589 537.813 589.179C610.616 574.391 668.484 584.273 732.2 545.907C797.506 506.585 786.265 475.653 796.676 400.679C807.313 324.078 860.731 238.353 813.107 177.816Z" fill="#78CDFF" fill-opacity="0.5"/>
    <path d="M495.568 379.798C510.141 477.604 469.819 530.458 426.598 536.898C383.377 543.338 330.247 483.269 318.755 406.142C312.426 363.667 352.714 349.094 397.619 342.404C442.524 335.713 488.906 335.087 495.568 379.798Z" fill="#F7F9FC"/>
    <path fill-rule="evenodd" clip-rule="evenodd" d="M488.263 480.37C474.805 510.722 452.297 527.753 428.943 531.232C385.722 537.672 332.592 477.604 321.1 400.477C319.85 392.086 320.419 384.785 322.483 378.418C318.602 386.021 317.117 395.147 318.755 406.142C330.246 483.269 383.377 543.338 426.598 536.898C451.367 533.207 475.184 514.273 488.263 480.37Z" fill="#E9EDF5"/>
    <path fill-rule="evenodd" clip-rule="evenodd" d="M470.497 511.062C492.043 485.536 504.785 441.658 495.569 379.798C488.907 335.087 442.525 335.713 397.62 342.404C364.659 347.315 334.186 356.472 322.81 377.794C337.187 363.138 362.994 356.068 390.539 351.964C435.443 345.274 481.826 344.647 488.487 389.359C496.641 444.086 487.608 484.739 470.497 511.062Z" fill="white"/>
    <path d="M570.882 428.576C574.835 432.433 581.392 432.222 582.747 426.868C583.091 425.513 583.325 424.076 583.448 422.564C583.884 417.197 582.911 410.985 580.583 404.281C578.256 397.578 574.62 390.514 569.883 383.494C565.146 376.474 559.401 369.635 552.975 363.367C546.55 357.1 539.57 351.526 532.435 346.965C525.299 342.404 518.148 338.945 511.388 336.784C504.629 334.624 498.394 333.806 493.04 334.375C491.531 334.536 490.101 334.805 488.755 335.182C483.436 336.67 483.388 343.23 487.342 347.087L529.112 387.832L570.882 428.576Z" fill="#F7F9FC"/>
    <path fill-rule="evenodd" clip-rule="evenodd" d="M484.903 343.11C485.56 342.094 486.585 341.284 488.009 340.831C489.342 340.407 490.762 340.087 492.264 339.874C497.595 339.117 503.855 339.716 510.686 341.638C517.517 343.56 524.785 346.766 532.076 351.074C539.368 355.382 546.539 360.707 553.18 366.745C559.821 372.783 565.803 379.417 570.783 386.266C573.258 389.669 575.461 393.093 577.366 396.488C575.327 392.204 572.816 387.841 569.883 383.495C565.146 376.475 559.401 369.636 552.976 363.368C546.55 357.1 539.571 351.527 532.435 346.966C525.3 342.405 518.148 338.945 511.389 336.785C504.629 334.625 498.395 333.806 493.04 334.376C491.532 334.536 490.101 334.806 488.755 335.183C485.027 336.226 483.889 339.76 484.903 343.11Z" fill="white"/>
    <path d="M250.417 307.547C247.739 302.717 241.398 301.034 238.561 305.773C237.843 306.972 237.206 308.281 236.653 309.694C234.693 314.709 233.84 320.939 234.143 328.029C234.445 335.118 235.898 342.929 238.418 351.014C240.937 359.099 244.475 367.301 248.828 375.151C253.181 383.001 258.264 390.345 263.788 396.764C269.311 403.184 275.167 408.552 281.02 412.564C286.874 416.576 292.61 419.152 297.902 420.145C299.393 420.425 300.841 420.577 302.239 420.604C307.761 420.707 309.692 414.437 307.013 409.607L278.715 358.577L250.417 307.547Z" fill="#F7F9FC"/>
    <path fill-rule="evenodd" clip-rule="evenodd" d="M236.292 310.551C239.343 307.931 244.361 309.534 246.829 313.54L277.434 363.22L308.027 412.88C307.863 411.806 307.503 410.724 306.938 409.705L278.64 358.675L250.342 307.644C247.663 302.814 241.322 301.132 238.485 305.87C237.767 307.07 237.13 308.379 236.578 309.792C236.48 310.042 236.385 310.295 236.292 310.551Z" fill="white"/>
    <circle cx="474.892" cy="166.1" r="10.5156" transform="rotate(-8.47443 474.892 166.1)" fill="#F7F9FC"/>
    <path fill-rule="evenodd" clip-rule="evenodd" d="M482.373 173.491C484.616 171.217 485.8 167.953 485.293 164.551C484.437 158.807 479.087 154.844 473.342 155.7C469.94 156.207 467.162 158.291 465.641 161.1C467.185 159.535 469.231 158.439 471.572 158.09C477.317 157.234 482.667 161.197 483.523 166.941C483.872 169.282 483.42 171.558 482.373 173.491Z" fill="white"/>
    <line x1="475.074" y1="168.199" x2="483.597" y2="225.403" stroke="#F7F9FC" stroke-width="5"/>
    <path fill-rule="evenodd" clip-rule="evenodd" d="M486.145 265.424C488.238 257.091 488.753 248.436 487.454 239.713C486.326 232.141 483.904 225.015 480.386 218.453C488.341 217.599 495.621 223.171 496.811 231.158L499.364 248.289C500.585 256.483 494.932 264.115 486.738 265.335L486.145 265.424Z" fill="#9BD9FF"/>
    <path fill-rule="evenodd" clip-rule="evenodd" d="M489.379 238.363C490.679 247.085 490.163 255.741 488.071 264.074L488.663 263.986C489.166 263.911 489.659 263.812 490.142 263.69C488.507 264.667 486.658 265.347 484.658 265.645L484.065 265.734C486.158 257.401 486.673 248.745 485.374 240.023C484.246 232.451 481.824 225.325 478.306 218.762C480.029 218.578 481.721 218.694 483.325 219.072C486.297 225.083 488.363 231.542 489.379 238.363Z" fill="#82D0FF"/>
    <circle cx="275.197" cy="195.853" r="10.5156" transform="rotate(-8.47443 275.197 195.853)" fill="#F7F9FC"/>
    <line x1="275.379" y1="197.953" x2="283.902" y2="255.157" stroke="#F7F9FC" stroke-width="5"/>
    <path fill-rule="evenodd" clip-rule="evenodd" d="M282.678 203.245C284.921 200.971 286.105 197.707 285.598 194.304C284.742 188.56 279.391 184.597 273.647 185.453C270.245 185.96 267.467 188.044 265.946 190.853C267.49 189.288 269.535 188.192 271.877 187.843C277.621 186.987 282.972 190.95 283.828 196.694C284.177 199.036 283.725 201.312 282.678 203.245Z" fill="white"/>
    <path d="M288.666 247.005L287.901 247.119C279.707 248.34 274.054 255.972 275.275 264.166L277.828 281.297C279.048 289.491 286.681 295.143 294.874 293.923L295.639 293.809L288.666 247.005Z" fill="#9BD9FF"/>
    <path fill-rule="evenodd" clip-rule="evenodd" d="M283.617 269.021C284.917 277.744 287.933 285.873 292.364 293.234L291.772 293.322C291.269 293.397 290.768 293.446 290.271 293.47C292.12 293.928 294.087 294.04 296.087 293.742L296.68 293.654C292.249 286.293 289.232 278.164 287.932 269.441C286.804 261.869 287.044 254.347 288.496 247.043C286.794 247.369 285.21 247.974 283.785 248.803C282.695 255.419 282.601 262.2 283.617 269.021Z" fill="#82D0FF"/>
    <ellipse cx="386.567" cy="254.746" rx="99.8979" ry="79.9183" transform="rotate(-8.47443 386.567 254.746)" fill="#F7F9FC"/>
    <path fill-rule="evenodd" clip-rule="evenodd" d="M469.765 294.359C482.187 278.453 488.261 259.403 485.373 240.022C478.869 196.366 429.358 167.567 374.789 175.698C342.65 180.487 315.924 197.016 300.712 218.715C316.271 198.792 341.79 183.805 372.134 179.284C426.703 171.153 476.214 199.952 482.718 243.608C485.392 261.553 480.383 279.214 469.765 294.359Z" fill="white"/>
    <path d="M307.496 243.594C307.503 234.481 314.478 227.211 323.492 225.868L438.484 208.735C447.498 207.392 456.289 212.312 458.953 221.028C463.065 234.486 467.47 254.505 463.091 268.859C453.461 300.43 433.33 315.288 396.407 320.789C359.484 326.291 335.896 317.946 317.481 290.554C309.108 278.1 307.485 257.667 307.496 243.594Z" fill="#C5E7FD"/>
    <path fill-rule="evenodd" clip-rule="evenodd" d="M343.221 314.956C357.414 322.455 374.581 324.041 396.407 320.789C433.33 315.288 453.461 300.43 463.091 268.859C467.47 254.505 463.065 234.486 458.953 221.028C457.141 215.101 452.496 210.929 446.874 209.289C450.077 211.45 452.565 214.635 453.779 218.609C457.892 232.068 462.296 252.086 457.918 266.44C448.288 298.011 428.156 312.87 391.234 318.371C371.994 321.238 356.374 320.345 343.221 314.956Z" fill="#B3E1FF"/>
    <path d="M355.468 254.29C358.351 254.356 360.59 251.61 358.598 249.525C357.817 248.707 356.918 247.996 355.923 247.417C353.141 245.8 349.83 245.355 346.72 246.178C343.609 247.002 340.953 249.028 339.336 251.81C338.752 252.815 338.321 253.888 338.047 254.996C337.358 257.788 340.653 259.07 343.123 257.597C345.071 256.435 347.307 255.303 349.291 254.801C351.106 254.341 353.376 254.241 355.468 254.29Z" fill="#297AF2"/>
    <path d="M425.09 243.963C427.927 244.483 430.57 242.123 428.931 239.75C428.288 238.82 427.513 237.976 426.621 237.248C424.128 235.213 420.929 234.252 417.728 234.576C414.526 234.9 411.585 236.482 409.55 238.975C408.815 239.875 408.22 240.867 407.775 241.919C406.655 244.567 409.708 246.351 412.378 245.286C414.485 244.445 416.871 243.679 418.91 243.495C420.774 243.328 423.032 243.586 425.09 243.963Z" fill="#297AF2"/>
    <path d="M408.649 265.275C411.926 264.787 415.051 267.072 414.785 270.375C414.67 271.809 414.437 273.234 414.087 274.637C413.25 277.986 411.762 281.138 409.707 283.912C407.652 286.686 405.071 289.029 402.111 290.805C399.151 292.582 395.87 293.759 392.455 294.267C389.041 294.776 385.559 294.607 382.21 293.771C378.861 292.934 375.709 291.446 372.935 289.391C370.16 287.336 367.818 284.755 366.041 281.795C365.297 280.556 364.659 279.26 364.13 277.922C362.913 274.84 365.236 271.744 368.514 271.255L388.581 268.265L408.649 265.275Z" fill="#297AF2"/>
    <g filter="url(#filter0_d_822_1037)">
        <ellipse cx="133.454" cy="206.801" rx="113.454" ry="68.8013" fill="white"/>
        <path d="M266.5 276.5C244.994 275.771 233.238 254.174 228.682 241.872L207.723 258.274C216.532 267.691 230.778 276.5 266.5 276.5Z" fill="white"/>
        <path d="M76.28 193.98L68.864 219H64.22L58.964 200.064L53.384 219L48.776 219.036L41.684 193.98H46.04L51.224 214.356L56.84 193.98H61.448L66.668 214.248L71.888 193.98H76.28ZM97.8448 208.596C97.8448 209.34 97.7968 210.012 97.7008 210.612H82.5448C82.6648 212.196 83.2528 213.468 84.3088 214.428C85.3648 215.388 86.6608 215.868 88.1968 215.868C90.4048 215.868 91.9648 214.944 92.8768 213.096H97.3048C96.7048 214.92 95.6128 216.42 94.0288 217.596C92.4688 218.748 90.5248 219.324 88.1968 219.324C86.3008 219.324 84.5968 218.904 83.0848 218.064C81.5968 217.2 80.4208 216 79.5568 214.464C78.7168 212.904 78.2968 211.104 78.2968 209.064C78.2968 207.024 78.7048 205.236 79.5208 203.7C80.3608 202.14 81.5248 200.94 83.0128 200.1C84.5248 199.26 86.2528 198.84 88.1968 198.84C90.0688 198.84 91.7368 199.248 93.2008 200.064C94.6648 200.88 95.8048 202.032 96.6208 203.52C97.4368 204.984 97.8448 206.676 97.8448 208.596ZM93.5608 207.3C93.5368 205.788 92.9968 204.576 91.9408 203.664C90.8848 202.752 89.5768 202.296 88.0168 202.296C86.6008 202.296 85.3888 202.752 84.3808 203.664C83.3728 204.552 82.7728 205.764 82.5808 207.3H93.5608ZM105.988 192.36V219H101.884V192.36H105.988ZM110.008 209.064C110.008 207.024 110.416 205.236 111.232 203.7C112.072 202.14 113.224 200.94 114.688 200.1C116.152 199.26 117.832 198.84 119.728 198.84C122.128 198.84 124.108 199.416 125.668 200.568C127.252 201.696 128.32 203.316 128.872 205.428H124.444C124.084 204.444 123.508 203.676 122.716 203.124C121.924 202.572 120.928 202.296 119.728 202.296C118.048 202.296 116.704 202.896 115.696 204.096C114.712 205.272 114.22 206.928 114.22 209.064C114.22 211.2 114.712 212.868 115.696 214.068C116.704 215.268 118.048 215.868 119.728 215.868C122.104 215.868 123.676 214.824 124.444 212.736H128.872C128.296 214.752 127.216 216.36 125.632 217.56C124.048 218.736 122.08 219.324 119.728 219.324C117.832 219.324 116.152 218.904 114.688 218.064C113.224 217.2 112.072 216 111.232 214.464C110.416 212.904 110.008 211.104 110.008 209.064ZM141.566 219.324C139.694 219.324 138.002 218.904 136.49 218.064C134.978 217.2 133.79 216 132.926 214.464C132.062 212.904 131.63 211.104 131.63 209.064C131.63 207.048 132.074 205.26 132.962 203.7C133.85 202.14 135.062 200.94 136.598 200.1C138.134 199.26 139.85 198.84 141.746 198.84C143.642 198.84 145.358 199.26 146.894 200.1C148.43 200.94 149.642 202.14 150.53 203.7C151.418 205.26 151.862 207.048 151.862 209.064C151.862 211.08 151.406 212.868 150.494 214.428C149.582 215.988 148.334 217.2 146.75 218.064C145.19 218.904 143.462 219.324 141.566 219.324ZM141.566 215.76C142.622 215.76 143.606 215.508 144.518 215.004C145.454 214.5 146.21 213.744 146.786 212.736C147.362 211.728 147.65 210.504 147.65 209.064C147.65 207.624 147.374 206.412 146.822 205.428C146.27 204.42 145.538 203.664 144.626 203.16C143.714 202.656 142.73 202.404 141.674 202.404C140.618 202.404 139.634 202.656 138.722 203.16C137.834 203.664 137.126 204.42 136.598 205.428C136.07 206.412 135.806 207.624 135.806 209.064C135.806 211.2 136.346 212.856 137.426 214.032C138.53 215.184 139.91 215.76 141.566 215.76ZM179.931 198.84C181.491 198.84 182.883 199.164 184.107 199.812C185.355 200.46 186.327 201.42 187.023 202.692C187.743 203.964 188.103 205.5 188.103 207.3V219H184.035V207.912C184.035 206.136 183.591 204.78 182.703 203.844C181.815 202.884 180.603 202.404 179.067 202.404C177.531 202.404 176.307 202.884 175.395 203.844C174.507 204.78 174.063 206.136 174.063 207.912V219H169.995V207.912C169.995 206.136 169.551 204.78 168.663 203.844C167.775 202.884 166.563 202.404 165.027 202.404C163.491 202.404 162.267 202.884 161.355 203.844C160.467 204.78 160.023 206.136 160.023 207.912V219H155.919V199.164H160.023V201.432C160.695 200.616 161.547 199.98 162.579 199.524C163.611 199.068 164.715 198.84 165.891 198.84C167.475 198.84 168.891 199.176 170.139 199.848C171.387 200.52 172.347 201.492 173.019 202.764C173.619 201.564 174.555 200.616 175.827 199.92C177.099 199.2 178.467 198.84 179.931 198.84ZM211.505 208.596C211.505 209.34 211.457 210.012 211.361 210.612H196.205C196.325 212.196 196.913 213.468 197.969 214.428C199.025 215.388 200.321 215.868 201.857 215.868C204.065 215.868 205.625 214.944 206.537 213.096H210.965C210.365 214.92 209.273 216.42 207.689 217.596C206.129 218.748 204.185 219.324 201.857 219.324C199.961 219.324 198.257 218.904 196.745 218.064C195.257 217.2 194.081 216 193.217 214.464C192.377 212.904 191.957 211.104 191.957 209.064C191.957 207.024 192.365 205.236 193.181 203.7C194.021 202.14 195.185 200.94 196.673 200.1C198.185 199.26 199.913 198.84 201.857 198.84C203.729 198.84 205.397 199.248 206.861 200.064C208.325 200.88 209.465 202.032 210.281 203.52C211.097 204.984 211.505 206.676 211.505 208.596ZM207.221 207.3C207.197 205.788 206.657 204.576 205.601 203.664C204.545 202.752 203.237 202.296 201.677 202.296C200.261 202.296 199.049 202.752 198.041 203.664C197.033 204.552 196.433 205.764 196.241 207.3H207.221ZM220.692 193.98L220.224 211.44H216.804L216.336 193.98H220.692ZM218.64 219.252C217.896 219.252 217.272 219 216.768 218.496C216.264 217.992 216.012 217.368 216.012 216.624C216.012 215.88 216.264 215.256 216.768 214.752C217.272 214.248 217.896 213.996 218.64 213.996C219.36 213.996 219.972 214.248 220.476 214.752C220.98 215.256 221.232 215.88 221.232 216.624C221.232 217.368 220.98 217.992 220.476 218.496C219.972 219 219.36 219.252 218.64 219.252Z" fill="#6B85B3"/>
    </g>
    <defs>
        <filter id="filter0_d_822_1037" x="0" y="118" width="286.5" height="178.5" filterUnits="userSpaceOnUse" color-interpolation-filters="sRGB">
            <feFlood flood-opacity="0" result="BackgroundImageFix"/>
            <feColorMatrix in="SourceAlpha" type="matrix" values="0 0 0 0 0 0 0 0 0 0 0 0 0 0 0 0 0 0 127 0" result="hardAlpha"/>
            <feOffset/>
            <feGaussianBlur stdDeviation="10"/>
            <feComposite in2="hardAlpha" operator="out"/>
            <feColorMatrix type="matrix" values="0 0 0 0 0.42 0 0 0 0 0.522667 0 0 0 0 0.7 0 0 0 0.1 0"/>
            <feBlend mode="normal" in2="BackgroundImageFix" result="effect1_dropShadow_822_1037"/>
            <feBlend mode="normal" in="SourceGraphic" in2="effect1_dropShadow_822_1037" result="shape"/>
        </filter>
    </defs>
</svg>
