<svg width="60" height="60" viewBox="0 0 60 60" fill="none" xmlns="http://www.w3.org/2000/svg">
<circle cx="30" cy="30" r="30" fill="#297AF2"/>
<circle cx="48.5987" cy="16.9108" r="1.91083" fill="#F7F9FC"/>
<path fill-rule="evenodd" clip-rule="evenodd" d="M49.7455 18.4394C50.2094 18.0907 50.5095 17.5358 50.5095 16.9108C50.5095 15.8555 49.654 15 48.5987 15C47.9734 15 47.4183 15.3003 47.0697 15.7646C47.3891 15.5245 47.7862 15.3823 48.2165 15.3823C49.2719 15.3823 50.1274 16.2378 50.1274 17.2931C50.1274 17.7232 49.9853 18.12 49.7455 18.4394Z" fill="white"/>
<line x1="48.5987" y1="17.2931" x2="48.5987" y2="27.8026" stroke="#F7F9FC" stroke-width="0.955414"/>
<path fill-rule="evenodd" clip-rule="evenodd" d="M47.9618 35.063C48.5609 33.6216 48.8854 32.0798 48.8854 30.4774C48.8854 29.0895 48.642 27.7471 48.1875 26.476C49.6496 26.6065 50.7957 27.8348 50.7957 29.3307V32.197C50.7957 33.7691 49.5299 35.0457 47.9618 35.063Z" fill="#9BD9FF"/>
<path fill-rule="evenodd" clip-rule="evenodd" d="M49.2675 30.2863C49.2675 31.8888 48.9431 33.4307 48.3439 34.8722C48.4368 34.8712 48.5288 34.8657 48.6194 34.856C48.2977 34.9859 47.9469 35.0591 47.5796 35.0632C48.1787 33.6217 48.5032 32.0799 48.5032 30.4775C48.5032 29.0896 48.2598 27.7472 47.8053 26.4761C48.1262 26.5047 48.4319 26.5862 48.7136 26.7119C49.0753 27.8553 49.2675 29.0529 49.2675 30.2863Z" fill="#82D0FF"/>
<circle cx="11.9108" cy="16.9108" r="1.91083" fill="#F7F9FC"/>
<line x1="11.9108" y1="17.2931" x2="11.9108" y2="27.8026" stroke="#F7F9FC" stroke-width="0.955414"/>
<path fill-rule="evenodd" clip-rule="evenodd" d="M13.0578 18.4394C13.5217 18.0907 13.8218 17.5358 13.8218 16.9108C13.8218 15.8555 12.9662 15 11.9109 15C11.2857 15 10.7306 15.3003 10.382 15.7646C10.7014 15.5245 11.0985 15.3823 11.5288 15.3823C12.5841 15.3823 13.4396 16.2378 13.4396 17.2931C13.4396 17.7232 13.2975 18.12 13.0578 18.4394Z" fill="white"/>
<path d="M12.9619 26.4647V26.4647C11.3789 26.4647 10.0957 27.748 10.0957 29.331V32.1972C10.0957 33.7802 11.3789 35.0634 12.9619 35.0634V35.0634V26.4647Z" fill="#9BD9FF"/>
<path fill-rule="evenodd" clip-rule="evenodd" d="M11.4649 30.2862C11.4649 31.8887 11.7893 33.4306 12.3885 34.8721C12.2957 34.8711 12.2039 34.8657 12.1134 34.856C12.435 34.9858 12.7856 35.0589 13.1528 35.063C12.5537 33.6216 12.2293 32.0798 12.2293 30.4774C12.2293 29.0895 12.4726 27.7471 12.9271 26.476C12.6062 26.5046 12.3005 26.5862 12.0188 26.7118C11.6571 27.8553 11.4649 29.0528 11.4649 30.2862Z" fill="#82D0FF"/>
<ellipse cx="30.3503" cy="30.4785" rx="18.1529" ry="14.5223" fill="#F7F9FC"/>
<path fill-rule="evenodd" clip-rule="evenodd" d="M44.2418 39.8266C46.9009 37.3005 48.5031 34.0388 48.5031 30.4777C48.5031 22.4573 40.3758 15.9554 30.3502 15.9554C24.4463 15.9554 19.2006 18.2102 15.8854 21.7021C19.2153 18.5387 24.2027 16.5287 29.777 16.5287C39.8025 16.5287 47.9298 23.0306 47.9298 31.051C47.9298 34.3483 46.5562 37.3889 44.2418 39.8266Z" fill="white"/>
<path d="M16.4161 26.5009C16.6664 24.7775 18.1906 23.5986 19.9321 23.5986H40.7685C42.5099 23.5986 44.0342 24.7775 44.2845 26.5009C44.651 29.0252 44.8752 32.6476 43.7261 35.0636C41.1498 40.48 37.1337 42.6114 30.3503 42.6114C23.5668 42.6114 19.5507 40.48 16.9745 35.0636C15.8253 32.6476 16.0495 29.0252 16.4161 26.5009Z" fill="#C5E7FD"/>
<path fill-rule="evenodd" clip-rule="evenodd" d="M20.9473 40.1389C23.2974 41.8669 26.3403 42.6117 30.3503 42.6117C37.1338 42.6117 41.1499 40.4803 43.7261 35.0639C44.8753 32.6479 44.6511 29.0256 44.2845 26.5012C44.1156 25.3378 43.366 24.4225 42.3609 23.9506C42.9162 24.4518 43.3038 25.1318 43.4194 25.928C43.786 28.4523 44.0102 32.0746 42.861 34.4907C40.2848 39.907 36.2687 42.0384 29.4852 42.0384C25.9504 42.0384 23.167 41.4597 20.9473 40.1389Z" fill="#B3E1FF"/>
<circle cx="23.8536" cy="29.3312" r="1.91083" fill="#297AF2"/>
<circle cx="36.8471" cy="29.3316" r="1.91083" fill="#297AF2"/>
<path d="M33.9809 32.9618C34.6141 32.9618 35.141 33.4822 34.9905 34.0973C34.9328 34.333 34.8571 34.5646 34.7637 34.7899C34.5237 35.3694 34.1718 35.8961 33.7282 36.3397C33.2846 36.7833 32.758 37.1351 32.1784 37.3752C31.5988 37.6153 30.9776 37.7388 30.3503 37.7388C29.723 37.7388 29.1018 37.6153 28.5222 37.3752C27.9426 37.1351 27.416 36.7833 26.9724 36.3397C26.5288 35.8961 26.1769 35.3694 25.9369 34.7899C25.8436 34.5646 25.7679 34.333 25.7102 34.0973C25.5597 33.4822 26.0865 32.9618 26.7197 32.9618L30.3503 32.9618H33.9809Z" fill="#297AF2"/>
</svg>
