<svg width="371" height="460" viewBox="0 0 371 460" fill="none" xmlns="http://www.w3.org/2000/svg">
<ellipse cx="185.5" cy="191" rx="185.5" ry="191" fill="#3BB5FF" fill-opacity="0.3"/>
<circle cx="88" cy="109" r="10" fill="#F7F9FC"/>
<line x1="87.5" y1="111" x2="87.5" y2="166" stroke="#F7F9FC" stroke-width="5"/>
<circle cx="281" cy="109" r="10" fill="#F7F9FC"/>
<line x1="280.5" y1="111" x2="280.5" y2="166" stroke="#F7F9FC" stroke-width="5"/>
<path d="M275 159C283.284 159 290 165.716 290 174V189C290 197.284 283.284 204 275 204V159Z" fill="#9BD9FF"/>
<path d="M94 159C85.7157 159 79 165.716 79 174V189C79 197.284 85.7157 204 94 204V159Z" fill="#9BD9FF"/>
<ellipse cx="187" cy="360.5" rx="85" ry="99.5" fill="#F7F9FC"/>
<path d="M62.3906 199.948C60.7495 194.675 54.8779 191.759 51.2074 195.886C50.175 197.047 49.2127 198.363 48.3266 199.831C45.392 204.692 43.3494 211.113 42.3156 218.729C41.2818 226.344 41.2769 235.005 42.3013 244.216C43.3257 253.427 45.3593 263.008 48.2859 272.413C51.2125 281.817 54.9749 290.86 59.3582 299.026C63.7415 307.192 68.6599 314.32 73.8326 320.004C79.0053 325.688 84.331 329.817 89.5055 332.154C91.068 332.859 92.6075 333.398 94.1163 333.768C99.4803 335.083 102.661 329.35 101.019 324.077L81.705 262.013L62.3906 199.948Z" fill="#F7F9FC"/>
<rect x="154" y="256" width="64" height="15" rx="4" fill="#9BD9FF"/>
<path d="M308.02 436.077C309.661 441.35 315.532 444.266 319.203 440.139C320.235 438.978 321.197 437.662 322.084 436.194C325.018 431.333 327.061 424.912 328.095 417.296C329.128 409.681 329.133 401.02 328.109 391.809C327.084 382.598 325.051 373.017 322.124 363.612C319.198 354.208 315.435 345.165 311.052 336.999C306.669 328.833 301.75 321.705 296.578 316.021C291.405 310.337 286.079 306.208 280.905 303.871C279.342 303.166 277.803 302.627 276.294 302.258C270.93 300.942 267.75 306.675 269.391 311.948L288.705 374.012L308.02 436.077Z" fill="#F7F9FC"/>
<ellipse cx="185" cy="184" rx="95" ry="80" fill="#F7F9FC"/>
<path d="M112.078 159.189C113.387 150.17 121.364 144 130.478 144H239.522C248.635 144 256.612 150.17 257.922 159.189C259.841 172.399 261.014 191.356 255 204C241.518 232.346 226 243.5 185 243.5C144 243.5 128.482 232.346 115 204C108.986 191.356 110.159 172.399 112.078 159.189Z" fill="#C5E7FD"/>
<circle cx="150" cy="174" r="10" fill="#297AF2"/>
<circle cx="220" cy="174" r="10" fill="#297AF2"/>
<path d="M204 193C207.314 193 210.071 195.724 209.283 198.943C208.982 200.176 208.585 201.388 208.097 202.567C206.841 205.6 204.999 208.356 202.678 210.678C200.356 212.999 197.6 214.841 194.567 216.097C191.534 217.353 188.283 218 185 218C181.717 218 178.466 217.353 175.433 216.097C172.4 214.841 169.644 212.999 167.322 210.678C165.001 208.356 163.159 205.6 161.903 202.567C161.415 201.388 161.018 200.176 160.717 198.943C159.929 195.724 162.686 193 166 193L185 193H204Z" fill="#297AF2"/>
<ellipse cx="185.5" cy="191" rx="185.5" ry="191" fill="#3BB5FF" fill-opacity="0.3"/>
<circle cx="88" cy="109" r="10" fill="#F7F9FC"/>
<line x1="87.5" y1="111" x2="87.5" y2="166" stroke="#F7F9FC" stroke-width="5"/>
<circle cx="281" cy="109" r="10" fill="#F7F9FC"/>
<line x1="280.5" y1="111" x2="280.5" y2="166" stroke="#F7F9FC" stroke-width="5"/>
<path d="M275 159C283.284 159 290 165.716 290 174V189C290 197.284 283.284 204 275 204V159Z" fill="#9BD9FF"/>
<path d="M94 159C85.7157 159 79 165.716 79 174V189C79 197.284 85.7157 204 94 204V159Z" fill="#9BD9FF"/>
<ellipse cx="187" cy="360.5" rx="85" ry="99.5" fill="#F7F9FC"/>
<path d="M62.3906 199.948C60.7495 194.675 54.8779 191.759 51.2074 195.886C50.175 197.047 49.2127 198.363 48.3266 199.831C45.392 204.692 43.3494 211.113 42.3156 218.729C41.2818 226.344 41.2769 235.005 42.3013 244.216C43.3257 253.427 45.3593 263.008 48.2859 272.413C51.2125 281.817 54.9749 290.86 59.3582 299.026C63.7415 307.192 68.6599 314.32 73.8326 320.004C79.0053 325.688 84.331 329.817 89.5055 332.154C91.068 332.859 92.6075 333.398 94.1163 333.768C99.4803 335.083 102.661 329.35 101.019 324.077L81.705 262.013L62.3906 199.948Z" fill="#F7F9FC"/>
<rect x="154" y="256" width="64" height="15" rx="4" fill="#9BD9FF"/>
<path d="M308.02 436.077C309.661 441.35 315.532 444.266 319.203 440.139C320.235 438.978 321.197 437.662 322.084 436.194C325.018 431.333 327.061 424.912 328.095 417.296C329.128 409.681 329.133 401.02 328.109 391.809C327.084 382.598 325.051 373.017 322.124 363.612C319.198 354.208 315.435 345.165 311.052 336.999C306.669 328.833 301.75 321.705 296.578 316.021C291.405 310.337 286.079 306.208 280.905 303.871C279.342 303.166 277.803 302.627 276.294 302.258C270.93 300.942 267.75 306.675 269.391 311.948L288.705 374.012L308.02 436.077Z" fill="#F7F9FC"/>
<ellipse cx="185" cy="184" rx="95" ry="80" fill="#F7F9FC"/>
<path d="M112.078 159.189C113.387 150.17 121.364 144 130.478 144H239.522C248.635 144 256.612 150.17 257.922 159.189C259.841 172.399 261.014 191.356 255 204C241.518 232.346 226 243.5 185 243.5C144 243.5 128.482 232.346 115 204C108.986 191.356 110.159 172.399 112.078 159.189Z" fill="#C5E7FD"/>
<circle cx="150" cy="174" r="10" fill="#297AF2"/>
<circle cx="220" cy="174" r="10" fill="#297AF2"/>
<path d="M204 193C207.314 193 210.071 195.724 209.283 198.943C208.982 200.176 208.585 201.388 208.097 202.567C206.841 205.6 204.999 208.356 202.678 210.678C200.356 212.999 197.6 214.841 194.567 216.097C191.534 217.353 188.283 218 185 218C181.717 218 178.466 217.353 175.433 216.097C172.4 214.841 169.644 212.999 167.322 210.678C165.001 208.356 163.159 205.6 161.903 202.567C161.415 201.388 161.018 200.176 160.717 198.943C159.929 195.724 162.686 193 166 193L185 193H204Z" fill="#297AF2"/>
</svg>
