<svg width="539" height="480" viewBox="0 0 539 480" fill="none" xmlns="http://www.w3.org/2000/svg">
<path d="M302.365 235.502C326.446 327.529 293.366 382.258 252.699 392.9C212.032 403.541 154.99 351.605 136.001 279.035C125.543 239.069 162.561 220.954 204.813 209.898C247.064 198.843 291.357 193.433 302.365 235.502Z" fill="#F7F9FC"/>
<path fill-rule="evenodd" clip-rule="evenodd" d="M305.81 332.443C296.087 362.866 276.328 381.488 254.354 387.238C213.687 397.879 156.645 345.943 137.656 273.373C135.59 265.479 135.377 258.437 136.691 252.134C133.768 259.807 133.293 268.689 136.001 279.035C154.99 351.605 212.032 403.541 252.699 392.9C276.004 386.801 296.818 366.223 305.81 332.443Z" fill="#E9EDF5"/>
<path fill-rule="evenodd" clip-rule="evenodd" d="M292.003 363.637C309.961 336.99 317.596 293.706 302.366 235.502C291.357 193.433 247.064 198.842 204.813 209.898C173.8 218.014 145.606 229.932 136.938 251.503C149.167 235.996 173.115 226.558 199.032 219.776C241.284 208.72 285.577 203.311 296.585 245.38C310.059 296.873 305.637 336.688 292.003 363.637Z" fill="white"/>
<path d="M379.152 274.106C383.498 277.514 389.994 276.581 390.672 271.1C390.823 269.882 390.881 268.609 390.846 267.287C390.707 262.11 389.131 256.269 386.21 250.1C383.289 243.93 379.079 237.552 373.821 231.329C368.562 225.107 362.359 219.162 355.564 213.835C348.769 208.507 341.515 203.9 334.218 200.278C326.921 196.656 319.723 194.09 313.034 192.725C306.346 191.36 300.298 191.224 295.237 192.324C293.944 192.605 292.723 192.965 291.576 193.402C286.415 195.368 287.059 201.899 291.405 205.306L335.279 239.706L379.152 274.106Z" fill="#F7F9FC"/>
<path fill-rule="evenodd" clip-rule="evenodd" d="M288.519 201.53C289.061 200.413 290.019 199.47 291.444 198.869C292.575 198.392 293.783 197.989 295.065 197.663C300.084 196.386 306.133 196.31 312.865 197.439C319.597 198.569 326.881 200.881 334.301 204.245C341.721 207.609 349.131 211.958 356.109 217.044C363.087 222.129 369.496 227.853 374.969 233.887C377.689 236.885 380.152 239.931 382.326 242.981C379.931 239.095 377.077 235.183 373.821 231.33C368.563 225.108 362.359 219.163 355.564 213.835C348.769 208.507 341.516 203.901 334.218 200.279C326.921 196.657 319.723 194.09 313.034 192.725C306.346 191.36 300.298 191.224 295.237 192.324C293.945 192.605 292.723 192.965 291.576 193.402C287.991 194.768 287.207 198.336 288.519 201.53Z" fill="white"/>
<path d="M162.108 364.955C164.374 369.991 161.911 376.074 156.427 375.418C155.209 375.273 153.959 375.024 152.685 374.673C147.691 373.296 142.399 370.367 137.11 366.051C131.82 361.736 126.637 356.12 121.857 349.523C117.077 342.926 112.793 335.478 109.25 327.604C105.707 319.73 102.974 311.584 101.207 303.631C99.4402 295.678 98.6742 288.074 98.9527 281.254C99.2312 274.433 100.549 268.529 102.83 263.879C103.413 262.692 104.055 261.592 104.755 260.584C107.901 256.045 114.087 258.235 116.353 263.272L139.231 314.113L162.108 364.955Z" fill="#F7F9FC"/>
<path fill-rule="evenodd" clip-rule="evenodd" d="M151.643 374.404C155.476 373.509 157.154 368.592 155.44 364.263L134.915 312.427L114.39 260.591C114.381 260.568 114.372 260.546 114.363 260.524C115.116 261.292 115.761 262.221 116.235 263.273L139.112 314.115L161.989 364.957C164.256 369.993 161.793 376.076 156.309 375.42C155.09 375.274 153.841 375.026 152.566 374.674C152.26 374.59 151.952 374.5 151.643 374.404Z" fill="white"/>
<circle cx="260.427" cy="33.274" r="10.1157" transform="rotate(-14.6639 260.427 33.274)" fill="#F7F9FC"/>
<path fill-rule="evenodd" clip-rule="evenodd" d="M268.348 39.5674C270.258 37.1601 271.051 33.9153 270.214 30.7137C268.799 25.309 263.272 22.074 257.867 23.4883C254.665 24.326 252.225 26.6071 251.062 29.4509C252.376 27.7942 254.219 26.5342 256.422 25.9577C261.826 24.5434 267.354 27.7783 268.769 33.1831C269.345 35.3864 269.149 37.6102 268.348 39.5674Z" fill="white"/>
<line x1="260.911" y1="35.2386" x2="274.996" y2="89.0625" stroke="#F7F9FC" stroke-width="5"/>
<path fill-rule="evenodd" clip-rule="evenodd" d="M281.491 127.096C282.629 118.91 282.224 110.579 280.076 102.371C278.215 95.2586 275.167 88.7056 271.132 82.8015C278.763 81.4291 286.286 86.1425 288.282 93.7711L292.211 108.786C294.308 116.8 289.512 124.998 281.497 127.095L281.491 127.096Z" fill="#9BD9FF"/>
<path fill-rule="evenodd" clip-rule="evenodd" d="M281.778 100.881C283.925 109.088 284.33 117.42 283.193 125.605L283.198 125.604C283.718 125.468 284.224 125.307 284.715 125.121C283.21 126.245 281.468 127.102 279.54 127.607L279.534 127.608C280.672 119.423 280.267 111.091 278.119 102.884C276.258 95.7708 273.21 89.2178 269.175 83.3138C270.844 83.0136 272.508 83.0046 274.111 83.2536C277.515 88.6421 280.118 94.5389 281.778 100.881Z" fill="#82D0FF"/>
<circle cx="72.5332" cy="82.4405" r="10.1157" transform="rotate(-14.6639 72.5332 82.4405)" fill="#F7F9FC"/>
<line x1="73.0172" y1="84.4052" x2="87.1013" y2="138.229" stroke="#F7F9FC" stroke-width="5"/>
<path fill-rule="evenodd" clip-rule="evenodd" d="M80.4542 88.7336C82.3635 86.3263 83.157 83.0817 82.3193 79.8804C80.905 74.4756 75.3771 71.2407 69.9724 72.655C66.7707 73.4927 64.3305 75.774 63.1671 78.6181C64.4812 76.9612 66.324 75.7009 68.5274 75.1243C73.9322 73.7101 79.4601 76.945 80.8743 82.3497C81.4508 84.5529 81.2548 86.7765 80.4542 88.7336Z" fill="white"/>
<path d="M90.7192 129.963L90.5514 130.007C82.537 132.104 77.7401 140.301 79.8372 148.316L83.7662 163.331C85.8633 171.345 94.0604 176.142 102.075 174.045L102.243 174.001L90.7192 129.963Z" fill="#9BD9FF"/>
<path fill-rule="evenodd" clip-rule="evenodd" d="M88.1743 151.541C90.3219 159.749 94.05 167.211 99.0509 173.79L99.0454 173.792C98.5261 173.928 98.0061 174.035 97.487 174.114C99.3488 174.356 101.288 174.251 103.216 173.746L103.221 173.745C98.2206 167.165 94.4925 159.703 92.3449 151.496C90.4837 144.383 89.9316 137.177 90.5576 130.053C88.9552 130.609 87.5 131.416 86.2251 132.418C85.896 138.784 86.5148 145.2 88.1743 151.541Z" fill="#82D0FF"/>
<ellipse cx="185.151" cy="127.212" rx="96.0987" ry="76.879" transform="rotate(-14.6639 185.151 127.212)" fill="#F7F9FC"/>
<path fill-rule="evenodd" clip-rule="evenodd" d="M268.827 156.468C279.058 139.968 282.891 121.119 278.119 102.883C267.371 61.8073 217.034 39.4002 165.689 52.8357C135.449 60.7485 111.604 79.3287 99.306 101.658C112.12 80.9912 134.971 64.011 163.521 56.5402C214.866 43.1046 265.203 65.5117 275.952 106.588C280.37 123.472 277.411 140.883 268.827 156.468Z" fill="white"/>
<path d="M108.438 125.338C107.432 116.28 113.586 108.295 122.403 105.988L229.461 77.9739C238.278 75.6668 247.554 79.6138 251.113 88.0037C256.39 100.444 262.459 118.796 259.8 132.773C253.864 163.965 236.152 180.263 201.411 189.353C166.671 198.444 143.246 192.91 122.793 168.623C113.629 157.741 109.931 138.768 108.438 125.338Z" fill="#C5E7FD"/>
<path fill-rule="evenodd" clip-rule="evenodd" d="M149.94 189.29C164.292 194.99 180.875 194.727 201.412 189.353C236.152 180.262 253.864 163.964 259.8 132.772C262.459 118.796 256.391 100.444 251.113 88.0035C248.707 82.3307 243.687 78.689 237.962 77.6385C241.424 79.4408 244.276 82.3626 245.915 86.2271C251.192 98.6672 257.261 117.02 254.602 130.996C248.666 162.188 230.954 178.486 196.213 187.577C178.11 192.314 163.079 193.08 149.94 189.29Z" fill="#B3E1FF"/>
<circle cx="150.341" cy="130.046" r="10.1157" transform="rotate(-14.6639 150.341 130.046)" fill="#297AF2"/>
<circle cx="216.887" cy="112.633" r="10.1157" transform="rotate(-14.6639 216.887 112.633)" fill="#297AF2"/>
<path d="M207.141 135.05C210.346 134.211 213.703 136.148 213.765 139.461C213.789 140.769 213.712 142.079 213.533 143.381C213.08 146.671 211.984 149.84 210.306 152.706C208.629 155.572 206.403 158.08 203.757 160.086C201.11 162.092 198.095 163.558 194.882 164.398C191.669 165.239 188.322 165.439 185.032 164.986C181.742 164.533 178.573 163.437 175.707 161.76C172.841 160.082 170.333 157.857 168.327 155.21C167.533 154.163 166.824 153.058 166.204 151.906C164.636 148.987 166.613 145.655 169.819 144.816L188.48 139.933L207.141 135.05Z" fill="#297AF2"/>
<ellipse cx="381" cy="438.5" rx="158" ry="41.5" fill="#A1DCFF"/>
</svg>
