<svg width="608" height="584" viewBox="0 0 608 584" fill="none" xmlns="http://www.w3.org/2000/svg">
<path fill-rule="evenodd" clip-rule="evenodd" d="M191.93 122.737C238.503 105.448 288.134 96.2785 335.239 112.17C373.29 125.007 401.68 151.151 434.164 174.177C472.15 201.103 522.413 216.44 541.183 258.152C561.581 303.482 567.963 332.987 541.183 375.112C515.047 416.225 461.335 438.694 416.601 460.225C374.584 480.448 348.413 533.524 303.41 520.595C257.126 507.297 241.973 441.821 206.162 410.565C169.412 378.49 101.058 387.744 77.7279 345.565C53.8166 302.333 57.669 232.751 77.7279 187.734C98.2218 141.74 143.497 140.716 191.93 122.737Z" fill="#DEF3FF"/>
<path fill-rule="evenodd" clip-rule="evenodd" d="M103.172 311.103C111.333 263.61 129.877 223.345 167.956 192.23C198.715 167.096 272.829 176.89 309.871 161.55C353.185 143.613 382.486 98.3213 429.273 103.858C480.116 109.875 532.264 136.992 556.328 180.616C579.814 223.19 536.612 262.989 533.174 311.103C529.944 356.294 567.54 419.077 533.174 449.945C497.829 481.692 441.709 445.775 395.627 459.71C348.338 474.01 317.666 497.713 268.151 495.731C217.402 493.699 214.084 472.552 184.028 433.051C153.32 392.694 94.6844 360.492 103.172 311.103Z" fill="#78CDFF" fill-opacity="0.5"/>
<path d="M372.435 317.128C372.435 379.172 341.431 408.244 313.01 408.244C284.589 408.244 256.167 366.054 256.167 317.128C256.167 290.183 283.481 284.865 313.01 284.865C342.538 284.865 372.435 288.764 372.435 317.128Z" fill="#F7F9FC"/>
<path fill-rule="evenodd" clip-rule="evenodd" d="M358.097 378.864C346.53 396.456 330.418 404.945 315.061 404.945C286.64 404.945 258.219 362.755 258.219 313.828C258.219 308.506 259.285 304.027 261.222 300.267C257.997 304.627 256.167 310.152 256.167 317.127C256.167 366.054 284.588 408.244 313.009 408.244C329.297 408.244 346.434 398.695 358.097 378.864Z" fill="#E9EDF5"/>
<path fill-rule="evenodd" clip-rule="evenodd" d="M343.728 396.268C360.034 382.418 372.435 356.367 372.435 317.128C372.435 288.764 342.538 284.865 313.009 284.865C291.335 284.865 270.853 287.73 261.492 299.911C272.145 292.144 289.425 290.143 307.538 290.143C337.066 290.143 366.964 294.043 366.964 322.406C366.964 357.121 357.257 381.514 343.728 396.268Z" fill="white"/>
<path d="M392.761 372.613C394.038 377.564 399.428 380.464 402.511 376.428V376.428C404.588 373.708 406.175 370.072 407.181 365.727C408.187 361.381 408.592 356.412 408.373 351.103C408.155 345.793 407.316 340.248 405.906 334.783C404.496 329.318 402.542 324.04 400.156 319.251C397.769 314.462 394.996 310.256 391.996 306.872C388.997 303.489 385.828 300.994 382.671 299.531V299.531C377.987 297.36 374.635 302.359 375.913 307.31L384.337 339.962L392.761 372.613Z" fill="#F7F9FC"/>
<path fill-rule="evenodd" clip-rule="evenodd" d="M376.15 302.355C377.285 301.667 378.73 301.521 380.361 302.21C383.568 303.565 386.826 305.951 389.947 309.231C393.068 312.51 395.992 316.62 398.551 321.325C401.111 326.03 403.256 331.239 404.864 336.653C406.472 342.067 407.511 347.58 407.923 352.879C408.128 355.511 408.175 358.065 408.068 360.504C408.405 357.546 408.508 354.39 408.373 351.103C408.154 345.794 407.316 340.248 405.906 334.783C404.496 329.318 402.542 324.04 400.155 319.252C397.769 314.463 394.996 310.257 391.996 306.873C388.996 303.49 385.827 300.995 382.671 299.532C379.645 298.13 377.175 299.719 376.15 302.355Z" fill="white"/>
<path d="M230.147 242.047C228.55 237.182 222.982 234.613 220.168 238.827V238.827C218.271 241.667 216.923 245.392 216.202 249.79C215.48 254.188 215.398 259.172 215.961 264.457C216.524 269.743 217.721 275.227 219.483 280.596C221.245 285.965 223.538 291.115 226.231 295.75C228.924 300.385 231.964 304.416 235.178 307.611C238.391 310.807 241.716 313.105 244.961 314.375V314.375C249.777 316.258 252.798 311.066 251.201 306.201L240.674 274.124L230.147 242.047Z" fill="#F7F9FC"/>
<path fill-rule="evenodd" clip-rule="evenodd" d="M219.156 240.522C221.995 239.169 225.837 241.404 227.275 245.177L239.319 276.77L251.364 308.362C251.465 308.628 251.552 308.895 251.625 309.162C251.66 308.203 251.527 307.195 251.2 306.201L240.673 274.124L230.146 242.047C228.55 237.182 222.982 234.613 220.167 238.827C219.811 239.361 219.473 239.927 219.156 240.522Z" fill="white"/>
<ellipse cx="379.616" cy="182.598" rx="6.83929" ry="6.59784" fill="#F7F9FC"/>
<path fill-rule="evenodd" clip-rule="evenodd" d="M383.72 187.878C385.381 186.674 386.456 184.757 386.456 182.598C386.456 178.954 383.394 176 379.617 176C377.38 176 375.394 177.037 374.146 178.638C375.289 177.81 376.709 177.32 378.249 177.32C382.026 177.32 385.088 180.274 385.088 183.918C385.088 185.403 384.579 186.775 383.72 187.878Z" fill="white"/>
<line x1="380.406" y1="183.917" x2="380.406" y2="220.206" stroke="#F7F9FC" stroke-width="5"/>
<path fill-rule="evenodd" clip-rule="evenodd" d="M377.335 245.276C379.48 240.299 380.641 234.975 380.641 229.442C380.641 224.651 379.77 220.016 378.144 215.628C383.378 216.094 387.481 220.491 387.481 225.846V235.018C387.481 240.646 382.949 245.215 377.335 245.276Z" fill="#9BD9FF"/>
<path fill-rule="evenodd" clip-rule="evenodd" d="M382.01 228.783C382.01 234.316 380.849 239.639 378.704 244.617C379.01 244.613 379.313 244.597 379.612 244.567C378.482 245.012 377.253 245.262 375.968 245.276C378.113 240.299 379.274 234.975 379.274 229.442C379.274 224.651 378.403 220.016 376.777 215.628C377.93 215.73 379.027 216.024 380.039 216.476C381.326 220.414 382.01 224.536 382.01 228.783Z" fill="#82D0FF"/>
<ellipse cx="248.302" cy="182.598" rx="6.83929" ry="6.59784" fill="#F7F9FC"/>
<line x1="249.092" y1="183.917" x2="249.092" y2="220.206" stroke="#F7F9FC" stroke-width="5"/>
<path fill-rule="evenodd" clip-rule="evenodd" d="M252.405 187.877C254.067 186.673 255.141 184.757 255.141 182.598C255.141 178.954 252.079 176 248.302 176C246.065 176 244.078 177.037 242.831 178.639C243.974 177.811 245.394 177.32 246.934 177.32C250.711 177.32 253.773 180.274 253.773 183.918C253.773 185.403 253.264 186.774 252.405 187.877Z" fill="white"/>
<path d="M252.063 215.587V215.587C246.397 215.587 241.804 220.18 241.804 225.846V235.018C241.804 240.684 246.397 245.277 252.063 245.277V245.277V215.587Z" fill="#9BD9FF"/>
<path fill-rule="evenodd" clip-rule="evenodd" d="M246.706 228.783C246.706 234.316 247.867 239.64 250.012 244.617C249.706 244.614 249.403 244.597 249.104 244.568C250.234 245.013 251.462 245.263 252.747 245.277C250.603 240.299 249.441 234.976 249.441 229.443C249.441 224.651 250.312 220.016 251.938 215.628C250.786 215.731 249.688 216.024 248.677 216.476C247.39 220.414 246.706 224.537 246.706 228.783Z" fill="#82D0FF"/>
<ellipse cx="314.301" cy="229.443" rx="64.9732" ry="50.1436" fill="#F7F9FC"/>
<path fill-rule="evenodd" clip-rule="evenodd" d="M364.021 261.723C373.539 253 379.273 241.738 379.273 229.442C379.273 201.749 350.184 179.299 314.3 179.299C293.168 179.299 274.393 187.084 262.527 199.142C274.445 188.219 292.297 181.278 312.248 181.278C348.132 181.278 377.221 203.728 377.221 231.422C377.221 242.807 372.305 253.306 364.021 261.723Z" fill="white"/>
<path d="M263.79 220.781C264.69 211.779 272.715 205.69 281.763 205.69H346.839C355.887 205.69 363.912 211.779 364.812 220.781C365.616 228.828 365.543 238.448 362.176 245.277C352.955 263.979 338.58 271.339 314.301 271.339C290.022 271.339 275.647 263.979 266.426 245.277C263.059 238.448 262.986 228.828 263.79 220.781Z" fill="#C5E7FD"/>
<path fill-rule="evenodd" clip-rule="evenodd" d="M280.644 262.8C289.056 268.767 299.948 271.339 314.301 271.339C338.58 271.339 352.955 263.979 362.176 245.277C365.543 238.448 365.616 228.828 364.812 220.781C364.224 214.9 360.596 210.263 355.628 207.754C358.963 210.407 361.259 214.229 361.716 218.802C362.52 226.849 362.447 236.469 359.08 243.298C349.859 262 335.484 269.36 311.205 269.36C298.552 269.36 288.59 267.361 280.644 262.8Z" fill="#B3E1FF"/>
<ellipse cx="291.047" cy="225.484" rx="6.83929" ry="6.59784" fill="#297AF2"/>
<ellipse cx="337.555" cy="225.484" rx="6.83929" ry="6.59784" fill="#297AF2"/>
<path d="M325.399 238.02C328.713 238.02 331.499 240.796 330.284 243.879C330.224 244.031 330.162 244.182 330.098 244.332C329.239 246.333 327.979 248.152 326.391 249.683C324.804 251.215 322.919 252.43 320.844 253.259C318.77 254.088 316.546 254.514 314.301 254.514C312.056 254.514 309.832 254.088 307.758 253.259C305.683 252.43 303.799 251.215 302.211 249.683C300.623 248.152 299.364 246.333 298.504 244.332C298.44 244.182 298.378 244.031 298.318 243.879C297.104 240.796 299.889 238.02 303.203 238.02L314.301 238.02H325.399Z" fill="#297AF2"/>
</svg>
