<svg width="580" height="577" viewBox="0 0 580 577" fill="none" xmlns="http://www.w3.org/2000/svg">
<path fill-rule="evenodd" clip-rule="evenodd" d="M182.935 121.266C227.326 104.184 274.63 95.1245 319.527 110.826C355.795 123.509 382.855 149.339 413.817 172.09C450.022 198.693 497.929 213.846 515.82 255.058C535.262 299.844 541.345 328.996 515.82 370.616C490.909 411.236 439.714 433.435 397.076 454.708C357.028 474.689 332.084 527.129 289.191 514.355C245.076 501.217 230.633 436.525 196.5 405.644C161.473 373.954 96.3214 383.096 74.0851 341.423C51.2944 298.71 54.9663 229.962 74.0851 185.484C93.6186 140.041 136.772 139.029 182.935 121.266Z" fill="#DEF3FF"/>
<path fill-rule="evenodd" clip-rule="evenodd" d="M81.0968 301.946C88.8757 255.022 106.551 215.24 142.845 184.498C172.163 159.665 242.803 169.342 278.109 154.186C319.393 136.463 347.321 91.7148 391.915 97.185C440.375 103.13 490.079 129.922 513.016 173.023C535.401 215.087 494.223 254.409 490.946 301.946C487.868 346.595 523.702 408.626 490.946 439.124C457.258 470.49 403.768 435.004 359.845 448.772C314.773 462.9 285.539 486.319 238.344 484.361C189.973 482.354 186.811 461.46 158.164 422.433C128.895 382.559 73.0073 350.743 81.0968 301.946Z" fill="#78CDFF" fill-opacity="0.5"/>
<path d="M361.126 325.89C361.126 387.19 331.575 415.914 304.485 415.914C277.396 415.914 250.307 374.23 250.307 325.89C250.307 299.268 276.341 294.013 304.485 294.013C332.63 294.013 361.126 297.866 361.126 325.89Z" fill="#F7F9FC"/>
<path fill-rule="evenodd" clip-rule="evenodd" d="M347.46 386.886C336.435 404.268 321.079 412.654 306.441 412.654C279.352 412.654 252.263 370.97 252.263 322.63C252.263 317.371 253.279 312.947 255.126 309.231C252.052 313.538 250.307 318.998 250.307 325.889C250.307 374.229 277.396 415.914 304.485 415.914C320.01 415.914 336.344 406.48 347.46 386.886Z" fill="#E9EDF5"/>
<path fill-rule="evenodd" clip-rule="evenodd" d="M333.764 404.082C349.306 390.398 361.126 364.659 361.126 325.89C361.126 297.866 332.63 294.013 304.486 294.013C283.827 294.013 264.306 296.844 255.383 308.879C265.537 301.205 282.006 299.228 299.271 299.228C327.415 299.228 355.911 303.081 355.911 331.105C355.911 365.404 346.659 389.505 333.764 404.082Z" fill="white"/>
<path d="M380.554 380.926C381.741 385.698 386.875 388.439 389.793 384.479C391.773 381.792 393.285 378.199 394.244 373.906C395.203 369.613 395.589 364.703 395.381 359.457C395.172 354.212 394.373 348.733 393.029 343.333C391.685 337.933 389.823 332.719 387.548 327.988C385.273 323.256 382.631 319.1 379.771 315.757C376.912 312.414 373.892 309.95 370.883 308.504C366.45 306.374 363.2 311.202 364.387 315.974L372.471 348.45L380.554 380.926Z" fill="#F7F9FC"/>
<path fill-rule="evenodd" clip-rule="evenodd" d="M364.606 311.312C365.704 310.616 367.105 310.46 368.681 311.15C371.738 312.489 374.843 314.846 377.818 318.087C380.793 321.328 383.58 325.388 386.019 330.037C388.459 334.685 390.503 339.831 392.036 345.18C393.568 350.53 394.559 355.977 394.952 361.212C395.147 363.814 395.192 366.338 395.089 368.749C395.411 365.825 395.51 362.706 395.381 359.458C395.172 354.212 394.373 348.733 393.029 343.333C391.685 337.934 389.823 332.719 387.548 327.988C385.273 323.256 382.631 319.101 379.771 315.758C376.912 312.415 373.892 309.95 370.883 308.505C367.976 307.108 365.578 308.703 364.606 311.312Z" fill="white"/>
<path d="M225.439 251.496C223.954 246.807 218.659 244.393 215.995 248.528C214.187 251.334 212.903 255.014 212.215 259.359C211.527 263.704 211.449 268.628 211.985 273.851C212.522 279.073 213.663 284.491 215.342 289.796C217.022 295.101 219.207 300.188 221.774 304.768C224.34 309.348 227.238 313.33 230.301 316.487C233.364 319.645 236.533 321.915 239.626 323.17C244.184 325.018 247.126 319.996 245.641 315.307L235.54 283.402L225.439 251.496Z" fill="#F7F9FC"/>
<path fill-rule="evenodd" clip-rule="evenodd" d="M215.035 250.195C217.726 248.853 221.36 250.97 222.697 254.606L234.249 286.015L245.801 317.425C245.886 317.656 245.96 317.888 246.023 318.12C246.06 317.208 245.94 316.251 245.641 315.307L235.54 283.402L225.439 251.496C223.955 246.807 218.659 244.393 215.995 248.528C215.657 249.053 215.337 249.609 215.035 250.195Z" fill="white"/>
<circle cx="367.971" cy="192.973" r="6.51875" fill="#F7F9FC"/>
<path fill-rule="evenodd" clip-rule="evenodd" d="M371.882 198.188C373.466 196.998 374.49 195.105 374.49 192.972C374.49 189.372 371.571 186.454 367.971 186.454C365.838 186.454 363.945 187.478 362.756 189.061C363.845 188.242 365.2 187.757 366.667 187.757C370.267 187.757 373.186 190.676 373.186 194.276C373.186 195.744 372.701 197.098 371.882 198.188Z" fill="white"/>
<line x1="368.841" y1="194.276" x2="368.841" y2="230.129" stroke="#F7F9FC" stroke-width="5"/>
<path fill-rule="evenodd" clip-rule="evenodd" d="M365.798 254.9C367.842 249.982 368.949 244.722 368.949 239.255C368.949 234.521 368.118 229.941 366.568 225.605C371.557 226.049 375.467 230.24 375.467 235.344V245.122C375.467 250.486 371.148 254.842 365.798 254.9Z" fill="#9BD9FF"/>
<path fill-rule="evenodd" clip-rule="evenodd" d="M370.252 238.604C370.252 244.07 369.146 249.33 367.101 254.248C367.42 254.245 367.734 254.226 368.045 254.193C366.946 254.636 365.748 254.886 364.494 254.9C366.538 249.982 367.645 244.722 367.645 239.255C367.645 234.521 366.815 229.941 365.264 225.605C366.359 225.702 367.401 225.98 368.362 226.408C369.597 230.31 370.252 234.395 370.252 238.604Z" fill="#82D0FF"/>
<circle cx="242.811" cy="192.973" r="6.51875" fill="#F7F9FC"/>
<line x1="243.681" y1="194.276" x2="243.681" y2="230.129" stroke="#F7F9FC" stroke-width="5"/>
<path fill-rule="evenodd" clip-rule="evenodd" d="M246.722 198.188C248.305 196.998 249.33 195.105 249.33 192.972C249.33 189.372 246.411 186.454 242.811 186.454C240.678 186.454 238.785 187.478 237.595 189.061C238.685 188.242 240.039 187.757 241.507 187.757C245.107 187.757 248.026 190.676 248.026 194.276C248.026 195.744 247.541 197.098 246.722 198.188Z" fill="white"/>
<path d="M246.396 225.566C240.996 225.566 236.618 229.944 236.618 235.344V245.122C236.618 250.523 240.996 254.901 246.396 254.901V225.566Z" fill="#9BD9FF"/>
<path fill-rule="evenodd" clip-rule="evenodd" d="M241.29 238.604C241.29 244.071 242.396 249.331 244.441 254.248C244.122 254.245 243.807 254.226 243.497 254.193C244.596 254.637 245.794 254.886 247.048 254.9C245.004 249.982 243.897 244.722 243.897 239.256C243.897 234.521 244.727 229.941 246.278 225.605C245.183 225.703 244.141 225.981 243.18 226.409C241.945 230.31 241.29 234.396 241.29 238.604Z" fill="#82D0FF"/>
<ellipse cx="305.717" cy="239.256" rx="61.9282" ry="49.5425" fill="#F7F9FC"/>
<path fill-rule="evenodd" clip-rule="evenodd" d="M353.109 271.148C362.18 262.53 367.645 251.403 367.645 239.255C367.645 211.894 339.919 189.713 305.717 189.713C285.575 189.713 267.679 197.405 256.369 209.319C267.729 198.526 284.744 191.669 303.761 191.669C337.963 191.669 365.689 213.85 365.689 241.211C365.689 252.459 361.004 262.832 353.109 271.148Z" fill="white"/>
<path d="M257.541 231.038C258.383 221.963 266.45 215.788 275.563 215.788H335.87C344.983 215.788 353.05 221.963 353.892 231.038C354.624 238.918 354.512 248.249 351.348 254.901C342.559 273.378 328.858 280.65 305.717 280.65C282.575 280.65 268.874 273.378 260.085 254.901C256.922 248.249 256.809 238.918 257.541 231.038Z" fill="#C5E7FD"/>
<path fill-rule="evenodd" clip-rule="evenodd" d="M273.638 272.214C281.655 278.109 292.036 280.65 305.717 280.65C328.858 280.65 342.559 273.379 351.348 254.901C354.512 248.249 354.624 238.918 353.893 231.038C353.353 225.221 349.845 220.596 344.995 218.025C348.276 220.704 350.519 224.528 350.942 229.082C351.673 236.962 351.561 246.294 348.397 252.945C339.608 271.423 325.907 278.694 302.766 278.694C290.706 278.694 281.211 276.72 273.638 272.214Z" fill="#B3E1FF"/>
<circle cx="283.553" cy="235.344" r="6.51875" fill="#297AF2"/>
<circle cx="327.881" cy="235.344" r="6.51875" fill="#297AF2"/>
<path d="M316.014 247.73C319.327 247.73 322.114 250.504 320.922 253.595C320.874 253.72 320.824 253.843 320.773 253.967C319.954 255.944 318.754 257.74 317.24 259.254C315.727 260.767 313.931 261.967 311.953 262.786C309.976 263.605 307.857 264.027 305.717 264.027C303.577 264.027 301.457 263.605 299.48 262.786C297.503 261.967 295.706 260.767 294.193 259.254C292.68 257.74 291.479 255.944 290.66 253.967C290.609 253.843 290.56 253.72 290.512 253.595C289.319 250.504 292.106 247.73 295.42 247.73H305.717H316.014Z" fill="#297AF2"/>
</svg>
